HIERARCHY
ROOT root
{
	OFFSET	0	13.1	24.9
	CHANNELS 6  Xposition Yposition Zposition Xrotation Yrotation Zrotation
	JOINT spine_1
	{
		OFFSET	0	9.99999	0
		CHANNELS 3  Xrotation Yrotation Zrotation
		JOINT spine_2
		{
			OFFSET	0	112	-10
			CHANNELS 3  Xrotation Yrotation Zrotation
			JOINT spine_3
			{
				OFFSET	0	206.5	19.3
				CHANNELS 3  Xrotation Yrotation Zrotation
				JOINT spine_4
				{
					OFFSET	0	110.4	14.6
					CHANNELS 3  Xrotation Yrotation Zrotation
					JOINT neck_1
					{
						OFFSET	0	71.8	-50.3
						CHANNELS 3  Xrotation Yrotation Zrotation
						JOINT neck_2
						{
							OFFSET	0	86.2	-25.8
							CHANNELS 3  Xrotation Yrotation Zrotation
							JOINT head_ee
							{
								OFFSET	0	179.8	-8.7
								CHANNELS 3  Xrotation Yrotation Zrotation
								End Site
								{
									OFFSET	1	0	0
								}
							}
						}
					}
					JOINT left_clavicle
					{
						OFFSET	-43.2	22.4	-70.8
						CHANNELS 3  Xrotation Yrotation Zrotation
						JOINT left_shoulder
						{
							OFFSET	-93.9	-5.79999	48.7
							CHANNELS 3  Xrotation Yrotation Zrotation
							JOINT left_elbow
							{
								OFFSET	-291.4	-30.8	15.2
								CHANNELS 3  Xrotation Yrotation Zrotation
								JOINT left_lowarm_twist
								{
									OFFSET	-110.7	-3.89999	13.6
									CHANNELS 3  Xrotation Yrotation Zrotation
									JOINT left_hand
									{
										OFFSET	-110.7	-3.89999	13.6
										CHANNELS 3  Xrotation Yrotation Zrotation
										JOINT left_ee
										{
											OFFSET	-80.8	-5.10001	12.1
											CHANNELS 3  Xrotation Yrotation Zrotation
											End Site
											{
												OFFSET	1	0	0
											}
										}
									}
								}
							}
						}
					}
					JOINT right_clavicle
					{
						OFFSET	43.2	22.4	-70.8
						CHANNELS 3  Xrotation Yrotation Zrotation
						JOINT right_shoulder
						{
							OFFSET	93.9	-5.79999	48.7
							CHANNELS 3  Xrotation Yrotation Zrotation
							JOINT right_elbow
							{
								OFFSET	291.4	-30.8	15.2
								CHANNELS 3  Xrotation Yrotation Zrotation
								JOINT right_lowarm_twist
								{
									OFFSET	110.7	-3.89999	13.6
									CHANNELS 3  Xrotation Yrotation Zrotation
									JOINT right_hand
									{
										OFFSET	110.7	-3.89999	13.6
										CHANNELS 3  Xrotation Yrotation Zrotation
										JOINT right_ee
										{
											OFFSET	80.8	-5.10001	12.1
											CHANNELS 3  Xrotation Yrotation Zrotation
											End Site
											{
												OFFSET	1	0	0
											}
										}
									}
								}
							}
						}
					}
				}
			}
		}
	}
	JOINT left_hip
	{
		OFFSET	-82.8	-127.5	0.300001
		CHANNELS 3  Xrotation Yrotation Zrotation
		JOINT left_knee
		{
			OFFSET	-28.2	-396.7	2.2
			CHANNELS 3  Xrotation Yrotation Zrotation
			JOINT left_ankle
			{
				OFFSET	-11.7	-411.3	35.4
				CHANNELS 3  Xrotation Yrotation Zrotation
				JOINT left_toes
				{
					OFFSET	0	-60	-88.6
					CHANNELS 3  Xrotation Yrotation Zrotation
					JOINT left_foot_ee
					{
						OFFSET	-22.5	-16.5	-42.2
						CHANNELS 3  Xrotation Yrotation Zrotation
						End Site
						{
							OFFSET	1	0	0
						}
					}
				}
			}
		}
	}
	JOINT right_hip
	{
		OFFSET	82.8	-127.5	0.300001
		CHANNELS 3  Xrotation Yrotation Zrotation
		JOINT right_knee
		{
			OFFSET	28.2	-396.7	2.2
			CHANNELS 3  Xrotation Yrotation Zrotation
			JOINT right_ankle
			{
				OFFSET	11.7	-411.3	35.4
				CHANNELS 3  Xrotation Yrotation Zrotation
				JOINT right_toes
				{
					OFFSET	0	-60	-88.6
					CHANNELS 3  Xrotation Yrotation Zrotation
					JOINT right_foot_ee
					{
						OFFSET	22.5	-16.5	-42.2
						CHANNELS 3  Xrotation Yrotation Zrotation
						End Site
						{
							OFFSET	1	0	0
						}
					}
				}
			}
		}
	}
}
MOTION
Frames: 6
Frame Time: 0.02
2585.05593157 749.583 -1450.36848085 1.18059512799 72.3293442705 -11.6060409639 2.0139 0.980971 4.20699 2.02346 0.711531 4.26076 2.07645 -0.0427876 4.31944 2.05099 0.639291 4.27217 -3.84812 13.0966 -4.58825 -3.46082 27.4323 -2.74349 -0.0 0.0 -0.0 -5.37105 19.5706 -5.72445 -20.0453 -20.2704 70.5183 0.64748 -17.7834 0.101297 -11.6468 -0.552783 1.38015 0.278264 10.121 5.98018 -0.0 0.0 -0.0 12.5149 18.8999 -25.1936 -7.77803 38.4506 -69.9343 1.42293 35.1771 -0.451087 13.4774 -0.276579 1.69545 -0.808376 20.2411 14.0543 0.0 0.0 0.0 0.832323 22.8342 4.62006 -31.7979 -0.0289876 4.81767 31.2237 1.06644 -4.03234 -18.0077 0.0 0.0 -0.0 0.0 -0.0 10.0183 0.39836 3.6176 -9.0442 -0.265398 -1.3612 33.092 23.5503 4.82404 -18.9571 0.0 0.0 0.0 0.0 0.0 
2580.12994624 747.721 -1446.49798943 1.51084692334 74.2181238227 -11.790571802 1.9792 1.01031 4.296 1.98916 0.735161 4.35144 2.04518 -0.0377038 4.41282 2.01862 0.659018 4.3636 -4.82366 12.7294 -4.90331 -4.51943 27.0605 -2.87898 -0.0 0.0 -0.0 -5.57908 19.7209 -5.99926 -21.6686 -20.2839 70.4179 0.607638 -16.7522 0.0894702 -11.6518 -0.55308 1.38071 0.275196 9.83397 5.84666 -0.0 0.0 -0.0 12.5793 18.2761 -25.3801 -5.84655 38.9694 -69.4504 1.55502 37.6048 -0.529472 13.3449 -0.275814 1.67854 -0.747665 20.4359 13.7216 0.0 0.0 0.0 1.93639 23.1076 4.16371 -26.3144 0.167496 3.99938 28.1115 1.66038 -3.69509 -19.1261 0.0 0.0 -0.0 0.0 -0.0 10.0026 0.40945 3.57011 -9.01334 -0.26486 -1.35649 34.1001 23.6228 4.93722 -18.6912 0.0 0.0 0.0 0.0 0.0 
2574.56355726 744.89 -1440.28373156 0.68683680294 76.687129543 -10.7248691324 1.93174 0.975571 4.4321 1.94239 0.69186 4.48505 1.99681 -0.107721 4.53671 1.96862 0.609382 4.49697 -6.20651 12.2431 -5.38125 -6.01088 26.5805 -3.10372 -0.0 0.0 -0.0 -5.65415 19.5345 -6.16408 -23.0253 -20.4572 70.4358 0.565231 -15.6423 0.0776404 -11.6282 -0.551681 1.37804 0.26668 9.41714 5.62607 -0.0 0.0 -0.0 12.705 17.3829 -25.7197 -3.65683 39.5983 -69.3763 1.72618 40.5302 -0.637378 13.1689 -0.274737 1.65609 -0.669953 20.6499 13.2825 0.0 0.0 0.0 3.2298 23.3823 3.03671 -18.9947 0.306246 2.88547 23.5511 2.5102 -3.16986 -20.7694 0.0 0.0 -0.0 0.0 -0.0 10.0393 0.429842 3.49675 -8.5429 -0.256342 -1.2848 35.4502 23.7114 5.08441 -18.3461 0.0 0.0 0.0 0.0 0.0 
2578.04958441 750.575 -1439.26462162 -0.385936704442 78.0625887972 -9.65363454941 1.90976 0.818769 4.62543 1.92151 0.52311 4.66803 1.96424 -0.309309 4.68701 1.93386 0.433968 4.67714 -6.88222 12.3195 -5.06109 -6.75863 26.5163 -2.5901 -0.0 0.0 -0.0 -5.84403 19.5728 -6.4425 -23.1756 -20.3355 70.5233 0.54342 -15.0667 0.0718651 -11.3073 -0.53274 1.34161 0.231722 9.19215 5.31043 -0.0 0.0 -0.0 12.763 16.9017 -25.8777 -2.05656 40.1796 -69.0786 1.82658 42.1359 -0.703696 13.0522 -0.273984 1.6412 -0.651183 20.6403 13.1516 0.0 0.0 0.0 5.0094 23.7776 2.26131 -10.3552 0.285919 1.56131 19.1722 3.43822 -2.63319 -23.0864 0.0 0.0 -0.0 0.0 -0.0 9.7875 0.426257 3.46335 -7.91737 -0.244105 -1.18959 35.1345 23.7154 5.05161 -17.9592 0.0 0.0 0.0 0.0 0.0 
2502.51890558 754.667 -1458.56243262 -7.05089462898 70.2977182577 -3.04257997492 1.9954 0.72308 4.80664 2.00815 0.416123 4.8428 2.04298 -0.439263 4.84076 2.01045 0.329831 4.84942 -7.55351 14.1476 -5.50234 -7.48158 30.2528 -2.45633 -0.0 0.0 -0.0 -5.23691 14.9766 -6.70513 -17.7378 -23.5699 69.0121 0.46159 -12.8799 0.0521019 -10.4266 -0.481816 1.2411 -0.432218 9.60219 1.20386 -0.0 0.0 -0.0 12.7316 15.8554 -25.8499 -9.85592 36.6997 -68.5182 1.42167 35.1533 -0.450365 15.7724 -0.283629 1.98847 -0.841676 19.5435 13.9953 0.0 0.0 0.0 -0.710059 25.0055 6.48938 -2.17013 0.0832506 0.322618 17.0678 1.81099 -2.37194 -27.3095 0.0 0.0 -0.0 0.0 -0.0 6.53527 4.05468 6.32443 -7.59811 -0.237458 -1.14105 36.8571 23.9234 5.23891 -18.917 0.0 0.0 0.0 0.0 0.0 
2502.52526709 754.667 -1458.43810906 -7.05908699906 70.3214074647 -3.03387882064 1.9954 0.72308 4.80664 2.00815 0.416123 4.8428 2.04298 -0.439263 4.84076 2.01045 0.329831 4.84942 -7.55351 14.1476 -5.50234 -7.48158 30.2528 -2.45633 -0.0 0.0 -0.0 -5.23691 14.9766 -6.70513 -17.7378 -23.5699 69.0121 0.46159 -12.8799 0.0521019 -10.4266 -0.481816 1.2411 -0.432218 9.60219 1.20386 -0.0 0.0 -0.0 12.7316 15.8554 -25.8499 -9.85592 36.6997 -68.5182 1.42167 35.1533 -0.450365 15.7724 -0.283629 1.98847 -0.841676 19.5435 13.9953 0.0 0.0 0.0 -0.710059 25.0055 6.48938 -2.17013 0.0832506 0.322618 17.0678 1.81099 -2.37194 -27.3095 0.0 0.0 -0.0 0.0 -0.0 6.53527 4.05468 6.32443 -7.59811 -0.237458 -1.14105 36.8571 23.9234 5.23891 -18.917 0.0 0.0 0.0 0.0 0.0 
